<svg width="82" height="82" viewBox="0 0 82 82" fill="none" xmlns="http://www.w3.org/2000/svg">
<path d="M40.6435 23.377V35.6059M40.6435 35.6059V47.8348M40.6435 35.6059H51.9366M40.6435 35.6059H29.3505" stroke="#45FFE2" stroke-width="6" stroke-linecap="round"/>
<path d="M48.1722 68.221C62.3676 68.221 69.4672 68.221 73.8752 63.4435C78.2871 58.6702 78.287 50.9822 78.287 35.6105C78.287 20.2387 78.2871 12.5508 73.8752 7.77743C69.4672 3 62.3676 3 48.1722 3H33.1148C18.9194 3 11.8199 3 7.41182 7.77743C3 12.5508 3 20.2387 3 35.6105C3 50.9822 3 58.6702 7.41182 63.4435C9.86994 66.1094 13.1638 67.2875 18.0574 67.8052" stroke="#45FFE2" stroke-width="6" stroke-linecap="round" stroke-linejoin="round"/>
<path d="M48.1722 68.2214C43.5195 68.2214 38.3924 70.2595 33.7134 72.8888C26.1922 77.1159 22.4316 79.2315 20.5795 77.8822C18.7275 76.5371 19.0775 72.3588 19.7815 64.0065L19.9396 62.1069" stroke="#45FFE2" stroke-width="6" stroke-linecap="round"/>
</svg>
