<svg width="116" height="96" viewBox="0 0 116 96" fill="none" xmlns="http://www.w3.org/2000/svg">
<path d="M12.3778 2.5391C10.6549 7.29975 9.31736 12.6272 8.70527 17.2291C8.29722 20.3575 8.34256 26.1837 8.81862 28.6094C9.20401 30.6496 10.1561 33.7101 10.4735 34.0274C10.5642 34.1181 11.8337 33.8007 13.2846 33.302C17.0251 32.0552 20.5389 31.4884 24.8235 31.4657C28.6547 31.4431 30.763 31.6924 34.2315 32.5766C41.0324 34.2768 46.8812 37.6773 51.9366 42.8687C54.0222 45.0223 55.9491 47.4933 57.1053 49.4882C57.4453 50.0776 57.8307 50.5537 57.9214 50.5537C58.0121 50.5537 58.3975 50.0776 58.7375 49.4882C59.8937 47.4933 61.8206 45.0223 63.9062 42.8687C68.9616 37.6773 74.8104 34.2768 81.6113 32.5766C85.0798 31.6924 87.1881 31.4431 91.0193 31.4657C95.3039 31.4884 98.8177 32.0552 102.558 33.302C104.009 33.8007 105.279 34.1181 105.369 34.0274C105.687 33.7101 106.639 30.6496 107.024 28.6094C107.5 26.1837 107.546 20.3575 107.138 17.2291C106.525 12.6272 105.188 7.29975 103.465 2.5391L102.536 8.01086e-05H101.47C100.223 8.01086e-05 95.984 0.544155 93.4676 1.02022C85.6239 2.49376 78.2109 5.50884 73.9943 8.88663C73.2462 9.49872 72.5207 9.97478 72.362 9.97478C72.226 9.97478 71.4326 9.77076 70.6165 9.49872C66.7399 8.29722 62.4553 7.66247 57.9214 7.66247C53.3874 7.66247 49.1028 8.29722 45.2263 9.49872C44.4102 9.77076 43.6168 9.97478 43.4807 9.97478C43.322 9.97478 42.5966 9.49872 41.8485 8.88663C37.6319 5.50884 30.2189 2.49376 22.3752 1.02022C19.8588 0.544155 15.6196 8.01086e-05 14.3727 8.01086e-05H13.3072L12.3778 2.5391Z" fill="white"/>
<path d="M20.1761 41.2363C14.3953 42.2791 9.63466 44.7275 5.28206 48.9214C3.35513 50.7803 3.28712 50.871 2.6297 52.8886C0.884122 58.1933 0.0906792 62.8633 0.0453396 68.1L0 71.9312L28.7906 83.7875C44.6368 90.3164 57.74 95.6665 57.9213 95.6665C58.1027 95.6665 71.2285 90.3164 87.052 83.7875L115.843 71.9312L115.797 68.1C115.752 62.8633 114.959 58.1933 113.213 52.8886C112.556 50.871 112.488 50.7803 110.561 48.9214C107.137 45.6343 103.669 43.526 99.475 42.1885C85.8278 37.8585 71.4325 44.1607 65.3117 57.1505C64.7449 58.3294 64.0875 60.0749 63.7928 61.0271L63.2941 62.7953H57.9213H52.5486L52.0498 61.0271C50.8257 56.8105 48.128 52.2765 44.8862 49.0801C38.3119 42.5739 29.1307 39.6494 20.1761 41.2363ZM36.589 53.9314C40.8736 56.1304 39.2187 62.6366 34.3674 62.6366C32.9392 62.6366 32.0324 62.2512 30.9896 61.1857C30.0601 60.2336 29.7428 59.2135 29.8561 57.5813C30.1055 54.2035 33.506 52.3672 36.589 53.9314ZM83.7875 53.9994C85.1024 54.7249 85.8732 55.9944 85.9865 57.5813C86.0999 59.2135 85.7825 60.2336 84.853 61.1857C83.8102 62.2512 82.9034 62.6366 81.4979 62.6366C78.4828 62.6366 76.3519 60.0976 76.8506 57.1279C77.372 54.0674 80.9992 52.4352 83.7875 53.9994ZM62.6366 69.4829C63.0447 69.7323 63.5888 70.367 63.8608 70.9111C64.2689 71.7952 64.2915 71.9992 64.0422 72.8154C63.6794 74.0622 61.9565 75.8531 59.7122 77.304L57.9213 78.5055L56.1304 77.304C53.9768 75.8984 52.2085 74.1075 51.8231 72.9287C51.3244 71.4325 52.3219 69.6416 53.9314 69.1428C54.3168 69.0295 56.2664 68.9615 58.2614 68.9842C61.4125 69.0295 61.9792 69.0975 62.6366 69.4829Z" fill="white"/>
</svg>
