<svg width="87" height="71" viewBox="0 0 87 71" fill="none" xmlns="http://www.w3.org/2000/svg">
<path d="M9.2959 1.88431C8.00197 5.4175 6.99747 9.37131 6.53778 12.7867C6.23133 15.1085 6.26538 19.4325 6.62291 21.2327C6.91234 22.7469 7.62741 25.0183 7.86577 25.2538C7.93387 25.3211 8.88729 25.0856 9.97692 24.7154C12.7861 23.7901 15.4251 23.3695 18.6429 23.3526C21.5202 23.3358 23.1035 23.5209 25.7084 24.1771C30.8161 25.4389 35.2086 27.9626 39.0053 31.8155C40.5716 33.4138 42.0188 35.2477 42.8871 36.7283C43.1425 37.1657 43.4319 37.519 43.5 37.519C43.5681 37.519 43.8575 37.1657 44.1129 36.7283C44.9812 35.2477 46.4284 33.4138 47.9947 31.8155C51.7914 27.9626 56.184 25.4389 61.2916 24.1771C63.8965 23.5209 65.4799 23.3358 68.3572 23.3526C71.575 23.3695 74.2139 23.7901 77.0231 24.7154C78.1127 25.0856 79.0662 25.3211 79.1343 25.2538C79.3726 25.0183 80.0877 22.7469 80.3771 21.2327C80.7347 19.4325 80.7687 15.1085 80.4622 12.7867C80.0026 9.37131 78.9981 5.4175 77.7041 1.88431L77.0061 -5.45084e-05H76.2059C75.2695 -5.45084e-05 72.0857 0.403738 70.1959 0.757057C64.3051 1.85066 58.7378 4.08835 55.5711 6.59523C55.0092 7.0495 54.4644 7.40282 54.3452 7.40282C54.2431 7.40282 53.6472 7.25139 53.0343 7.0495C50.1229 6.15779 46.9051 5.6867 43.5 5.6867C40.0949 5.6867 36.8771 6.15779 33.9658 7.0495C33.3529 7.25139 32.757 7.40282 32.6548 7.40282C32.5356 7.40282 31.9908 7.0495 31.429 6.59523C28.2622 4.08835 22.6949 1.85066 16.8041 0.757057C14.9143 0.403738 11.7305 -5.45084e-05 10.7941 -5.45084e-05H9.99395L9.2959 1.88431Z" fill="#45FFE2"/>
<path d="M15.1526 30.6039C10.8112 31.3778 7.23581 33.1949 3.96693 36.3074C2.51977 37.6871 2.46869 37.7544 1.97495 39.2518C0.663992 43.1888 0.0681018 46.6546 0.0340509 50.5412L0 53.3845L21.6223 62.1839C33.5231 67.0294 43.3638 71 43.5 71C43.6362 71 53.4939 67.0294 65.3777 62.1839L87 53.3845L86.966 50.5412C86.9319 46.6546 86.336 43.1888 85.0251 39.2518C84.5313 37.7544 84.4802 37.6871 83.0331 36.3074C80.4622 33.8679 77.8573 32.3032 74.7076 31.3105C64.4583 28.097 53.6472 32.7743 49.0503 42.4148C48.6247 43.2897 48.1309 44.5852 47.9096 45.2918L47.535 46.6042H43.5H39.465L39.0904 45.2918C38.171 42.1624 36.145 38.7975 33.7104 36.4252C28.773 31.5965 21.8777 29.4261 15.1526 30.6039ZM27.4791 40.0257C30.6969 41.6577 29.454 46.4864 25.8106 46.4864C24.738 46.4864 24.0569 46.2004 23.2738 45.4096C22.5757 44.703 22.3374 43.9459 22.4225 42.7345C22.6098 40.2276 25.1636 38.8648 27.4791 40.0257ZM62.926 40.0762C63.9135 40.6146 64.4924 41.5568 64.5775 42.7345C64.6626 43.9459 64.4243 44.703 63.7262 45.4096C62.9431 46.2004 62.262 46.4864 61.2065 46.4864C58.9421 46.4864 57.3417 44.602 57.7162 42.398C58.1078 40.1267 60.8319 38.9153 62.926 40.0762ZM47.0413 51.5675C47.3478 51.7525 47.7564 52.2236 47.9607 52.6274C48.2671 53.2836 48.2842 53.435 48.0969 54.0407C47.8245 54.9661 46.5305 56.2952 44.845 57.372L43.5 58.2637L42.155 57.372C40.5376 56.3289 39.2096 54.9997 38.9202 54.1248C38.5456 53.0144 39.2947 51.6852 40.5035 51.3151C40.793 51.231 42.2571 51.1805 43.7554 51.1973C46.1219 51.231 46.5476 51.2814 47.0413 51.5675Z" fill="#45FFE2"/>
</svg>
