<svg width="118" height="118" viewBox="0 0 118 118" fill="none" xmlns="http://www.w3.org/2000/svg">
<path fill-rule="evenodd" clip-rule="evenodd" d="M58.6667 106.667C85.1764 106.667 106.667 85.1765 106.667 58.6668C106.667 32.1572 85.1764 10.6668 58.6667 10.6668C32.157 10.6668 10.6667 32.1572 10.6667 58.6668C10.6667 85.1765 32.157 106.667 58.6667 106.667ZM117.333 58.6668C117.333 91.0675 91.0674 117.333 58.6667 117.334C26.266 117.334 3.48971e-05 91.0675 3.20645e-05 58.6668C2.92319e-05 26.2661 26.266 0.000167225 58.6667 0.000164392C91.0674 0.00016156 117.333 26.2661 117.333 58.6668Z" fill="white"/>
<path fill-rule="evenodd" clip-rule="evenodd" d="M66.5259 81.483C66.5257 87.7415 74.9692 94 66.5257 87.7408L32.7528 58.5357C31.3456 57.4926 31.3456 57.492 32.7528 56.4495L66.5257 29.3289C74.9692 23.0704 66.5257 29.3289 66.5257 35.5878C66.5257 39.7607 83.4126 29.3299 74.9692 35.5879L44.0105 57.4926L74.9692 81.4834C83.4127 87.7425 66.5259 77.3101 66.5259 81.483Z" fill="white"/>
</svg>
