<svg width="118" height="118" viewBox="0 0 118 118" fill="none" xmlns="http://www.w3.org/2000/svg">
<path fill-rule="evenodd" clip-rule="evenodd" d="M58.6667 10.6667C32.157 10.6667 10.6667 32.157 10.6667 58.6667C10.6667 85.1763 32.157 106.667 58.6667 106.667C85.1763 106.667 106.667 85.1763 106.667 58.6667C106.667 32.157 85.1763 10.6667 58.6667 10.6667ZM0 58.6667C0 26.266 26.266 0 58.6667 0C91.0674 0 117.333 26.266 117.333 58.6667C117.333 91.0674 91.0674 117.333 58.6667 117.333C26.266 117.333 0 91.0674 0 58.6667Z" fill="white"/>
<path fill-rule="evenodd" clip-rule="evenodd" d="M70.4379 33.5621C72.5207 35.6449 72.5207 39.0218 70.4379 41.1046L52.8758 58.6667L70.4379 76.2288C72.5207 78.3116 72.5207 81.6884 70.4379 83.7712C68.3551 85.854 64.9782 85.854 62.8954 83.7712L41.5621 62.4379C39.4793 60.3551 39.4793 56.9782 41.5621 54.8954L62.8954 33.5621C64.9782 31.4793 68.3551 31.4793 70.4379 33.5621Z" fill="white"/>
</svg>
