<svg width="118" height="118" viewBox="0 0 118 118" fill="none" xmlns="http://www.w3.org/2000/svg">
<path fill-rule="evenodd" clip-rule="evenodd" d="M58.6667 10.6667C32.157 10.6667 10.6667 32.157 10.6667 58.6667C10.6667 85.1763 32.157 106.667 58.6667 106.667C85.1763 106.667 106.667 85.1763 106.667 58.6667C106.667 32.157 85.1763 10.6667 58.6667 10.6667ZM0 58.6667C0 26.266 26.266 0 58.6667 0C91.0674 0 117.333 26.266 117.333 58.6667C117.333 91.0674 91.0674 117.333 58.6667 117.333C26.266 117.333 0 91.0674 0 58.6667Z" fill="white"/>
<path fill-rule="evenodd" clip-rule="evenodd" d="M50.8075 35.8505C50.8077 29.592 42.3642 23.3335 50.8077 29.5927L84.5806 58.7978C85.9878 59.8409 85.9878 59.8415 84.5806 60.884L50.8077 88.0046C42.3642 94.2631 50.8077 88.0046 50.8077 81.7457C50.8077 77.5728 33.9208 88.0036 42.3642 81.7456L73.3229 59.8409L42.3642 35.8501C33.9207 29.591 50.8075 40.0233 50.8075 35.8505Z" fill="white"/>
</svg>
