<svg width="118" height="118" viewBox="0 0 118 118" fill="none" xmlns="http://www.w3.org/2000/svg">
<path fill-rule="evenodd" clip-rule="evenodd" d="M58.6667 10.6667C32.157 10.6667 10.6667 32.157 10.6667 58.6667C10.6667 85.1763 32.157 106.667 58.6667 106.667C85.1763 106.667 106.667 85.1763 106.667 58.6667C106.667 32.157 85.1763 10.6667 58.6667 10.6667ZM0 58.6667C0 26.266 26.266 0 58.6667 0C91.0674 0 117.333 26.266 117.333 58.6667C117.333 91.0674 91.0674 117.333 58.6667 117.333C26.266 117.333 0 91.0674 0 58.6667Z" fill="white"/>
<path fill-rule="evenodd" clip-rule="evenodd" d="M46.8954 33.5621C48.9782 31.4793 52.3551 31.4793 54.4379 33.5621L75.7712 54.8954C77.854 56.9782 77.854 60.3551 75.7712 62.4379L54.4379 83.7712C52.3551 85.854 48.9782 85.854 46.8954 83.7712C44.8126 81.6884 44.8126 78.3116 46.8954 76.2288L64.4575 58.6667L46.8954 41.1046C44.8126 39.0218 44.8126 35.6449 46.8954 33.5621Z" fill="white"/>
</svg>
