<svg width="77" height="77" viewBox="0 0 77 77" fill="none" xmlns="http://www.w3.org/2000/svg">
<circle cx="38.5" cy="38.5" r="36.5" stroke="#45FFE2" stroke-width="4"/>
<path d="M33.7656 24.6172C33.7344 24.0078 33.9375 23.4844 34.375 23.0469C34.8281 22.6094 35.3594 22.3906 35.9688 22.3906H41.0078C41.6172 22.3906 42.1406 22.6094 42.5781 23.0469C43.0312 23.4844 43.2422 24.0078 43.2109 24.6172L42.5547 43.8594C42.5234 44.4688 42.2969 44.9844 41.875 45.4062C41.4531 45.8125 40.9453 46.0156 40.3516 46.0156H36.6484C36.0391 46.0156 35.5234 45.8125 35.1016 45.4062C34.6953 44.9844 34.4766 44.4688 34.4453 43.8594L33.7656 24.6172ZM39.9531 48.4062C42.0625 48.4062 43.1172 49.4688 43.1172 51.5938V53.0703C43.1172 54.0547 42.8438 54.8281 42.2969 55.3906C41.7656 55.9531 40.9844 56.2344 39.9531 56.2344H37.0703C36.0391 56.2344 35.25 55.9531 34.7031 55.3906C34.1719 54.8281 33.9062 54.0547 33.9062 53.0703V51.5938C33.9062 50.5625 34.1797 49.7734 34.7266 49.2266C35.2734 48.6797 36.0547 48.4062 37.0703 48.4062H39.9531Z" fill="#45FFE2"/>
</svg>
