<svg width="76" height="76" viewBox="0 0 76 76" fill="none" xmlns="http://www.w3.org/2000/svg">
<g clip-path="url(#clip0_87_346)">
<path fill-rule="evenodd" clip-rule="evenodd" d="M49.7257 6.50465C51.0059 6.066 52.4234 6.48939 53.2534 7.55833L75.2647 35.9082C75.7289 36.4647 76 37.1773 76 37.937V37.9402C76 38.6998 75.729 39.4122 75.2649 39.9687L53.2536 68.3249C52.4237 69.394 51.0062 69.8176 49.7259 69.3789C48.4455 68.9403 47.5855 67.7366 47.5855 66.3832V53.7804C30.5523 54.1344 22.3882 57.3572 18.2958 60.86C14.419 64.1782 13.715 68.0742 12.9726 72.1831C12.9079 72.5409 12.843 72.9004 12.7756 73.2611L12.7576 73.3666C12.4871 74.9512 11.0723 76.0816 9.46711 75.9958C7.86193 75.91 6.57569 74.6352 6.4756 73.0309C5.93296 64.3322 6.73506 51.7155 12.8687 41.1573C18.8216 30.9103 29.5535 23.0293 47.5855 22.2064V9.50035C47.5855 8.14705 48.4455 6.94331 49.7257 6.50465ZM13.8872 56.3015C13.9826 56.2168 14.0794 56.1325 14.1775 56.0485C20.2789 50.8262 31.1172 47.4149 50.7521 47.4149C52.501 47.4149 53.9188 48.8326 53.9188 50.5815V57.1394L68.8231 37.9388L53.9188 18.7425V25.302C53.9188 27.0509 52.501 28.4687 50.7521 28.4687C32.8592 28.4687 23.4105 35.6192 18.345 44.3387C16.1731 48.0773 14.7603 52.1882 13.8872 56.3015Z" fill="#45FFE2"/>
</g>
<defs>
<clipPath id="clip0_87_346">
<rect width="76" height="76" fill="white"/>
</clipPath>
</defs>
</svg>
