<svg width="70" height="70" viewBox="0 0 70 70" fill="none" xmlns="http://www.w3.org/2000/svg">
<path d="M32.0834 20.4168H37.9167V26.2502H32.0834V20.4168ZM32.0834 32.0835H37.9167V49.5835H32.0834V32.0835ZM35 5.8335C18.9 5.8335 5.83337 18.9002 5.83337 35.0002C5.83337 51.1002 18.9 64.1668 35 64.1668C51.1 64.1668 64.1667 51.1002 64.1667 35.0002C64.1667 18.9002 51.1 5.8335 35 5.8335ZM35 58.3335C22.1375 58.3335 11.6667 47.8627 11.6667 35.0002C11.6667 22.1377 22.1375 11.6668 35 11.6668C47.8625 11.6668 58.3334 22.1377 58.3334 35.0002C58.3334 47.8627 47.8625 58.3335 35 58.3335Z" fill="#45FFE2"/>
</svg>
