<svg width="87" height="71" viewBox="0 0 87 71" fill="none" xmlns="http://www.w3.org/2000/svg">
<path d="M10.1301 0.538391C7.95088 6.59526 7.03151 10.4649 6.72505 15.0244C6.45264 19.1464 7.04853 23.1002 8.32544 25.5566L8.61487 26.095L7.52524 27.8111C4.83523 32.0173 3.0816 35.7355 1.73659 40.0427C0.493738 44.0133 0.0510763 46.823 0.0170254 50.6927L0 53.3846L21.6223 62.2007C33.5231 67.0294 43.3638 71 43.5 71C43.6362 71 53.4939 67.0294 65.3777 62.2007L87 53.3846L86.983 50.6927C86.9489 46.823 86.5063 44.0133 85.2634 40.0427C83.9184 35.7355 82.1648 32.0173 79.4748 27.8111L78.3851 26.095L78.6746 25.5566C79.9515 23.1002 80.5474 19.1464 80.275 15.0244C79.9685 10.4649 79.0491 6.59526 76.8699 0.538391C76.6826 0.0336514 76.6145 2.07126e-06 75.8654 2.07126e-06C74.929 2.07126e-06 71.7452 0.403794 69.8554 0.757111C63.8284 1.88436 57.7162 4.37441 54.7879 6.91493L54.2431 7.38602L53.0853 7.04953C49.7824 6.10735 46.871 5.68673 43.5 5.68673C40.129 5.68673 37.2176 6.10735 33.9147 7.04953L32.7569 7.38602L32.2121 6.91493C29.2838 4.37441 23.1716 1.88436 17.1446 0.757111C15.2548 0.403794 12.071 2.07126e-06 11.1346 2.07126e-06C10.3855 2.07126e-06 10.3174 0.0336514 10.1301 0.538391ZM17.8767 8.07583C20.2773 8.64787 22.3204 9.33768 24.074 10.1284L25.3168 10.7005L24.2442 11.3398C21.2648 13.1232 18.4045 15.3609 15.6294 18.0528L13.9098 19.7353L13.7736 18.9277C13.4501 16.7237 14.2162 10.5154 15.1526 7.77299C15.2548 7.47014 15.6123 7.52062 17.8767 8.07583ZM72.0517 8.49645C72.937 11.8277 73.4818 16.6564 73.2264 18.7427L73.0902 19.7353L71.3706 18.0528C68.5615 15.3273 65.7693 13.1569 62.7558 11.3398L61.6661 10.6837L62.926 10.1284C64.935 9.21991 67.4378 8.42915 70.6556 7.68886C71.5579 7.47014 71.8133 7.62157 72.0517 8.49645ZM47.8926 13.0223C53.6812 14.0654 59.2826 16.8246 64.4924 21.2159L65.6331 22.1917L65.0031 22.2927C59.9296 23.0498 56.3031 24.3789 52.4043 26.9531C49.7313 28.7028 46.5646 31.8827 44.7258 34.6419C43.9597 35.786 43.3297 36.7955 43.3297 36.8628C43.3297 37.2161 43.0233 36.9637 42.6828 36.3581C41.5591 34.3896 38.4605 31.0415 36.0939 29.2076C31.8716 25.9604 26.6108 23.8573 21.6053 23.4367C20.9072 23.3863 20.3624 23.2685 20.3795 23.2012C20.4135 23.1339 21.0094 22.545 21.7245 21.9225C27.428 16.7742 34.119 13.5775 40.9462 12.7194C42.0699 12.5848 46.4795 12.7699 47.8926 13.0223ZM71.6601 29.3927C72.0176 29.5104 72.4262 29.931 73.1413 30.9742C76.5294 35.9206 78.8618 41.641 79.662 46.9576C79.8153 47.8998 79.9004 48.7073 79.8834 48.7242C79.7642 48.8419 44.0278 63.328 43.7043 63.3953C43.4489 63.4457 37.0644 60.922 25.1977 56.0934L7.06556 48.7242L7.16771 48.0344C7.93386 42.4822 9.99393 36.9469 13.1436 32.0173L13.9098 30.8227L14.9654 30.6209C16.6339 30.318 19.8176 30.2171 21.384 30.4358C28.79 31.4789 34.817 35.8365 37.9497 42.4149C38.3753 43.2898 38.8861 44.5853 39.0904 45.3088L39.465 46.6043L43.3808 46.5706L47.3137 46.5201L47.4499 45.9313C48.5055 41.5232 50.4975 37.9396 53.511 35.0457C54.9241 33.6998 57.1204 32.1351 58.7888 31.3107C60.3211 30.5367 63.1644 29.645 64.901 29.359C66.5014 29.1066 70.7407 29.1235 71.6601 29.3927Z" fill="#45FFE2"/>
<path d="M24.9081 39.6892C23.4099 40.1771 22.5245 41.2539 22.4224 42.7344C22.3373 43.9458 22.5756 44.7029 23.2737 45.4096C24.0568 46.2003 24.7378 46.4863 25.8104 46.4863C29.4539 46.4863 30.6968 41.6577 27.4789 40.0257C26.6958 39.6387 25.5551 39.4873 24.9081 39.6892Z" fill="#45FFE2"/>
<path d="M60.1167 39.7733C56.286 41.1697 57.1543 46.4863 61.2064 46.4863C62.2619 46.4863 62.943 46.2003 63.7261 45.4096C65.2073 43.9122 64.7987 41.1024 62.9259 40.0761C62.0576 39.5882 60.951 39.4705 60.1167 39.7733Z" fill="#45FFE2"/>
<path d="M40.5036 51.3156C39.2948 51.6857 38.5456 53.0149 38.9202 54.1253C39.2096 55.0002 40.5376 56.3293 42.155 57.3725L43.5001 58.2642L44.8451 57.3725C46.5306 56.2957 47.8245 54.9665 48.0969 54.0412C48.2842 53.4355 48.2672 53.2841 47.9607 52.6279C47.3478 51.3829 46.9051 51.2315 43.7554 51.1978C42.2572 51.181 40.793 51.2315 40.5036 51.3156Z" fill="#45FFE2"/>
</svg>
