<svg width="47" height="47" viewBox="0 0 87 87" fill="none" xmlns="http://www.w3.org/2000/svg">
<path d="M10.1953 8.19024C8.02031 14.3074 7.10273 18.2156 6.79688 22.8205C6.525 26.9836 7.11973 30.9768 8.39414 33.4576L8.68301 34.0014L7.59551 35.7346C4.91074 39.9826 3.16055 43.7379 1.81816 48.0879C0.577734 52.098 0.135937 54.9357 0.101953 58.8439L0.0849609 61.5627L21.665 70.4666C33.5426 75.3434 43.3641 79.3535 43.5 79.3535C43.6359 79.3535 53.4744 75.3434 65.335 70.4666L86.915 61.5627L86.898 58.8439C86.8641 54.9357 86.4223 52.098 85.1818 48.0879C83.8395 43.7379 82.0893 39.9826 79.4045 35.7346L78.317 34.0014L78.6059 33.4576C79.8803 30.9768 80.475 26.9836 80.2031 22.8205C79.8973 18.2156 78.9797 14.3074 76.8047 8.19024C76.6178 7.68047 76.5498 7.64648 75.8021 7.64648C74.8676 7.64648 71.69 8.0543 69.8039 8.41113C63.7887 9.54961 57.6885 12.0645 54.7658 14.6303L54.2221 15.1061L53.0666 14.7662C49.7701 13.8147 46.8645 13.3898 43.5 13.3898C40.1355 13.3898 37.2299 13.8147 33.9334 14.7662L32.7779 15.1061L32.2342 14.6303C29.3115 12.0645 23.2113 9.54961 17.1961 8.41113C15.31 8.0543 12.1324 7.64648 11.1979 7.64648C10.4502 7.64648 10.3822 7.68047 10.1953 8.19024ZM17.9268 15.8027C20.3227 16.3805 22.3617 17.0771 24.1119 17.8758L25.3523 18.4535L24.2818 19.0992C21.3082 20.9004 18.4535 23.1604 15.6838 25.8791L13.9676 27.5783L13.8316 26.7627C13.5088 24.5367 14.2734 18.2666 15.208 15.4969C15.31 15.191 15.6668 15.242 17.9268 15.8027ZM71.9959 16.2275C72.8795 19.592 73.4232 24.4688 73.1684 26.5758L73.0324 27.5783L71.3162 25.8791C68.5125 23.1264 65.7258 20.9344 62.7182 19.0992L61.6307 18.4365L62.8881 17.8758C64.8932 16.9582 67.391 16.1596 70.6025 15.4119C71.5031 15.191 71.758 15.3439 71.9959 16.2275ZM47.884 20.7984C53.6613 21.852 59.2518 24.6387 64.4514 29.0736L65.5898 30.0592L64.9611 30.1611C59.8975 30.9258 56.2781 32.2682 52.3869 34.868C49.7191 36.6352 46.5586 39.8467 44.7234 42.6334C43.9588 43.7889 43.3301 44.8084 43.3301 44.8764C43.3301 45.2332 43.0242 44.9783 42.6844 44.3666C41.5629 42.3785 38.4703 38.9971 36.1084 37.1449C31.8943 33.8654 26.6437 31.7414 21.648 31.3166C20.9514 31.2656 20.4076 31.1467 20.4246 31.0787C20.4586 31.0107 21.0533 30.416 21.767 29.7873C27.4594 24.5877 34.1373 21.3592 40.9512 20.4926C42.0727 20.3566 46.4736 20.5436 47.884 20.7984ZM71.6051 37.3318C71.9619 37.4508 72.3697 37.8756 73.0834 38.9291C76.4648 43.9248 78.7928 49.7021 79.5914 55.0717C79.7443 56.0232 79.8293 56.8389 79.8123 56.8559C79.6934 56.9748 44.0268 71.6051 43.7039 71.673C43.449 71.724 37.077 69.1752 25.2334 64.2984L7.13672 56.8559L7.23867 56.1592C8.00332 50.5518 10.0594 44.9613 13.2029 39.9826L13.9676 38.7762L15.0211 38.5723C16.6863 38.2664 19.8639 38.1645 21.4271 38.3854C28.8187 39.4389 34.834 43.8398 37.9605 50.4838C38.3853 51.3674 38.8951 52.6758 39.099 53.4064L39.4729 54.7148L43.3811 54.6809L47.3062 54.6299L47.4422 54.0352C48.4957 49.5832 50.4838 45.9639 53.4914 43.0412C54.9018 41.6818 57.0938 40.1016 58.759 39.2689C60.2883 38.4873 63.126 37.5867 64.8592 37.2979C66.4564 37.043 70.6875 37.06 71.6051 37.3318Z" fill="#45FFE2"/>
<path d="M24.9445 47.7309C23.4492 48.2236 22.5656 49.3111 22.4636 50.8064C22.3787 52.0299 22.6165 52.7945 23.3132 53.5082C24.0949 54.3068 24.7746 54.5957 25.8451 54.5957C29.4814 54.5957 30.7218 49.7189 27.5103 48.0707C26.7287 47.6799 25.5902 47.527 24.9445 47.7309Z" fill="#45FFE2"/>
<path d="M60.0844 47.8158C56.2611 49.2262 57.1277 54.5957 61.1719 54.5957C62.2254 54.5957 62.9051 54.3068 63.6867 53.5082C65.165 51.9959 64.7572 49.1582 62.8881 48.1217C62.0215 47.6289 60.917 47.51 60.0844 47.8158Z" fill="#45FFE2"/>
<path d="M40.5093 59.4725C39.3029 59.8463 38.5552 61.1887 38.9291 62.3102C39.2179 63.1938 40.5433 64.5361 42.1576 65.5896L43.5 66.4902L44.8423 65.5896C46.5246 64.5021 47.816 63.1598 48.0878 62.2252C48.2748 61.6135 48.2578 61.4605 47.9519 60.7979C47.3402 59.5404 46.8984 59.3875 43.7548 59.3535C42.2595 59.3365 40.7982 59.3875 40.5093 59.4725Z" fill="#45FFE2"/>
</svg>
