<svg width="57" height="57" viewBox="0 0 57 57" fill="none" xmlns="http://www.w3.org/2000/svg">
<path d="M51.0293 43.0814H46.4653C46.1537 43.0814 45.8616 43.2206 45.6668 43.4658C45.2123 44.0292 44.7254 44.5727 44.2126 45.0897C42.1149 47.2333 39.6303 48.9417 36.896 50.1202C34.0632 51.3418 31.0185 51.9684 27.9434 51.9628C24.8337 51.9628 21.8214 51.3398 18.9908 50.1202C16.2565 48.9417 13.7719 47.2333 11.6742 45.0897C9.57283 42.9533 7.89723 40.421 6.74023 37.6333C5.5392 34.7435 4.93543 31.6748 4.93543 28.5C4.93543 25.3253 5.54569 22.2566 6.74023 19.3668C7.89582 16.5765 9.5578 14.0645 11.6742 11.9104C13.7906 9.75636 16.2511 8.05962 18.9908 6.87986C21.8214 5.66032 24.8337 5.0373 27.9434 5.0373C31.0531 5.0373 34.0654 5.65369 36.896 6.87986C39.6356 8.05962 42.0961 9.75636 44.2126 11.9104C44.7254 12.434 45.2059 12.9775 45.6668 13.5343C45.8616 13.7795 46.1602 13.9187 46.4653 13.9187H51.0293C51.4383 13.9187 51.6915 13.4547 51.4642 13.1034C46.4848 5.203 37.7724 -0.0264112 27.872 0.000100338C12.3169 0.0398677 -0.154366 12.9311 0.00144419 28.7917C0.157254 44.4004 12.6091 57 27.9434 57C37.8179 57 46.4913 51.7772 51.4642 43.8966C51.685 43.5454 51.4383 43.0814 51.0293 43.0814ZM56.8007 28.0825L47.5885 20.6593C47.2444 20.3809 46.7445 20.6327 46.7445 21.0768V26.114H26.3593C26.0737 26.114 25.84 26.3526 25.84 26.6442V30.3559C25.84 30.6475 26.0737 30.8861 26.3593 30.8861H46.7445V35.9233C46.7445 36.3674 47.2509 36.6192 47.5885 36.3408L56.8007 28.9176C56.8628 28.868 56.913 28.8046 56.9475 28.7323C56.9821 28.6599 57 28.5805 57 28.5C57 28.4196 56.9821 28.3402 56.9475 28.2678C56.913 28.1955 56.8628 28.1321 56.8007 28.0825Z" fill="#45FFE2"/>
</svg>
