<svg width="55" height="55" viewBox="0 0 55 55" fill="none" xmlns="http://www.w3.org/2000/svg">
<path d="M28.1063 9.68169e-05C18.5534 -0.0254845 10.1468 5.02044 5.34213 12.6437C5.12914 12.9826 5.36718 13.4303 5.76183 13.4303H10.1656C10.4663 13.4303 10.7482 13.296 10.9361 13.0594C11.3746 12.5158 11.8444 11.9914 12.3393 11.4925C14.3814 9.41403 16.7555 7.77683 19.399 6.63846C22.1302 5.46172 25.0368 4.86055 28.0374 4.86055C31.038 4.86055 33.9446 5.45532 36.6758 6.63846C39.3193 7.77683 41.6934 9.41403 43.7355 11.4925C45.7777 13.571 47.375 15.9948 48.4963 18.6873C49.6552 21.4756 50.2378 24.4367 50.2378 27.5C50.2378 30.5634 49.649 33.5245 48.4963 36.3128C47.3813 39.0053 45.7777 41.4291 43.7355 43.5076C41.6934 45.5861 39.3193 47.2233 36.6758 48.3616C33.9424 49.5403 31.0046 50.145 28.0374 50.1395C25.0368 50.1395 22.1302 49.5384 19.399 48.3616C16.7607 47.2244 14.3633 45.576 12.3393 43.5076C11.8444 43.0023 11.3808 42.4779 10.9361 41.9407C10.7482 41.7041 10.46 41.5698 10.1656 41.5698H5.76183C5.36718 41.5698 5.12288 42.0175 5.34213 42.3564C10.1405 49.9605 18.5095 55 28.0374 55C42.8335 55 54.8483 42.8425 54.9986 27.7814C55.1489 12.4774 43.1154 0.0384688 28.1063 9.68169e-05ZM20.1708 34.6628V29.8024H0.501138C0.225512 29.8024 0 29.5721 0 29.2907V25.7094C0 25.428 0.225512 25.1977 0.501138 25.1977H20.1708V20.3373C20.1708 19.9088 20.6594 19.6658 20.9851 19.9344L29.8741 27.0971C29.934 27.145 29.9824 27.2061 30.0157 27.276C30.049 27.3458 30.0664 27.4224 30.0664 27.5C30.0664 27.5777 30.049 27.6543 30.0157 27.7241C29.9824 27.7939 29.934 27.8551 29.8741 27.903L20.9851 35.0657C20.6594 35.3279 20.1708 35.0913 20.1708 34.6628Z" fill="#45FFE2"/>
</svg>
