<svg width="57" height="57" viewBox="0 0 57 57" fill="none" xmlns="http://www.w3.org/2000/svg">
<path d="M28.5 26.9167C30.692 26.9167 32.8349 26.2666 34.6575 25.0488C36.4802 23.8309 37.9008 22.1 38.7396 20.0747C39.5785 18.0495 39.798 15.821 39.3703 13.6711C38.9427 11.5211 37.8871 9.54627 36.3371 7.99624C34.787 6.44621 32.8122 5.39062 30.6622 4.96297C28.5123 4.53532 26.2838 4.7548 24.2586 5.59367C22.2333 6.43254 20.5024 7.85312 19.2845 9.67577C18.0667 11.4984 17.4166 13.6413 17.4166 15.8333C17.4166 18.7728 18.5843 21.5919 20.6629 23.6704C22.7414 25.749 25.5605 26.9167 28.5 26.9167ZM28.5 7.91667C30.0657 7.91667 31.5963 8.38098 32.8982 9.25087C34.2001 10.1208 35.2148 11.3572 35.814 12.8038C36.4132 14.2503 36.57 15.8421 36.2645 17.3778C35.959 18.9135 35.2051 20.3241 34.0979 21.4313C32.9907 22.5384 31.5801 23.2924 30.0444 23.5979C28.5087 23.9034 26.917 23.7466 25.4704 23.1474C24.0238 22.5482 22.7874 21.5335 21.9175 20.2316C21.0476 18.9297 20.5833 17.3991 20.5833 15.8333C20.5833 13.7337 21.4174 11.7201 22.902 10.2354C24.3867 8.75075 26.4003 7.91667 28.5 7.91667Z" fill="#45FFE2"/>
<path d="M48.2441 38.5856C45.7049 35.9019 42.6451 33.7642 39.2517 32.3033C35.8582 30.8424 32.2024 30.0889 28.5079 30.0889C24.8133 30.0889 21.1576 30.8424 17.7641 32.3033C14.3707 33.7642 11.3108 35.9019 8.77163 38.5856C8.22112 39.1736 7.91538 39.9493 7.91663 40.7548V49.0831C7.91663 49.923 8.25026 50.7284 8.84412 51.3223C9.43799 51.9162 10.2434 52.2498 11.0833 52.2498H45.9166C46.7565 52.2498 47.5619 51.9162 48.1558 51.3223C48.7497 50.7284 49.0833 49.923 49.0833 49.0831V40.7548C49.0888 39.9515 48.7889 39.1761 48.2441 38.5856ZM45.9166 49.0831H11.0833V40.739C13.3272 38.3761 16.0285 36.4946 19.0227 35.2088C22.0169 33.9231 25.2414 33.2601 28.5 33.2601C31.7585 33.2601 34.983 33.9231 37.9772 35.2088C40.9714 36.4946 43.6727 38.3761 45.9166 40.739V49.0831Z" fill="#45FFE2"/>
</svg>
