<svg width="69" height="47" viewBox="0 0 69 47" fill="none" xmlns="http://www.w3.org/2000/svg">
<path d="M3 28L4.95615 37.94C5.29683 39.6707 6.08329 41.2072 7.19054 42.3052C8.29779 43.4032 9.66228 43.9997 11.0671 44H57.9328C59.3377 43.9997 60.7022 43.4032 61.8095 42.3052C62.9167 41.2072 63.7032 39.6707 64.0439 37.94L66 28" stroke="#45FFE2" stroke-width="5" stroke-linecap="round" stroke-linejoin="round"/>
<path fill-rule="evenodd" clip-rule="evenodd" d="M50.3403 0.513279C51.1181 1.29617 51.2232 2.69242 50.575 3.63189L32.2417 30.2033C31.912 30.6812 31.431 30.9695 30.9164 30.9977C30.4018 31.0259 29.9012 30.7914 29.537 30.3514L18.537 17.0658C17.821 16.201 17.821 14.799 18.537 13.9343C19.2529 13.0696 20.4137 13.0696 21.1297 13.9343L30.7101 25.5055L47.7582 0.796789C48.4064 -0.14268 49.5625 -0.269612 50.3403 0.513279Z" fill="#45FFE2"/>
</svg>
