<svg width="42" height="52" viewBox="0 0 42 52" fill="none" xmlns="http://www.w3.org/2000/svg">
<path fill-rule="evenodd" clip-rule="evenodd" d="M2.05025 2.05317C3.36301 0.738546 5.14348 0 7 0H35C36.8565 0 38.637 0.738546 39.9497 2.05317C41.2625 3.36779 42 5.15079 42 7.00995V49.0696C42 50.0147 41.4315 50.8668 40.5596 51.2284C39.6877 51.5901 38.6841 51.3902 38.0167 50.7219L21 33.681L3.98325 50.7219C3.31592 51.3902 2.31231 51.5901 1.44041 51.2284C0.568498 50.8668 0 50.0147 0 49.0696V7.00995C0 5.15079 0.737497 3.36779 2.05025 2.05317ZM7 4.6733C6.38116 4.6733 5.78767 4.91948 5.35008 5.35769C4.9125 5.79589 4.66667 6.39023 4.66667 7.00995V43.4285L19.3501 28.7242C20.2613 27.8117 21.7387 27.8117 22.6499 28.7242L37.3333 43.4285V7.00995C37.3333 6.39023 37.0875 5.79589 36.6499 5.35769C36.2123 4.91948 35.6188 4.6733 35 4.6733H7Z" fill="#45FFE2"/>
</svg>
