<svg width="68" height="55" viewBox="0 0 68 55" fill="none" xmlns="http://www.w3.org/2000/svg">
<path fill-rule="evenodd" clip-rule="evenodd" d="M6.11111 10.3625V47.3981C8.8858 46.5795 12.9067 45.8333 18.3333 45.8333C23.76 45.8333 27.7809 46.5795 30.5555 47.3981V10.3625C30.0922 9.92422 29.3733 9.32393 28.3812 8.7134C26.3351 7.45426 23.0644 6.11111 18.3333 6.11111C13.6022 6.11111 10.3315 7.45426 8.28543 8.7134C7.29333 9.32393 6.57448 9.92422 6.11111 10.3625ZM33.6111 9.16666L36.0555 7.33333C36.4522 7.86224 36.6667 8.50553 36.6667 9.16666V51.9444C36.6667 53.0713 36.0464 54.1067 35.0529 54.6384C34.0703 55.1643 32.8804 55.1131 31.9474 54.5073M31.9262 54.4934L31.9343 54.4988L31.9474 54.5073C31.9509 54.5096 31.9514 54.5098 31.9514 54.5098C31.9508 54.5094 31.9483 54.5079 31.9474 54.5073C31.9386 54.5019 31.9153 54.4878 31.8773 54.4661C31.7933 54.4181 31.6371 54.3328 31.4056 54.2217C30.9431 53.9996 30.1774 53.6735 29.084 53.3371C26.901 52.6654 23.385 51.9444 18.3333 51.9444C13.2817 51.9444 9.76565 52.6654 7.58262 53.3371C6.48923 53.6735 5.72358 53.9996 5.26103 54.2217C5.02956 54.3328 4.87334 54.4181 4.78936 54.4661C4.75132 54.4878 4.72806 54.5019 4.71929 54.5073C4.72883 54.5011 4.73836 54.4949 4.74785 54.4886C4.74872 54.488 4.7496 54.4874 4.75047 54.4868L3.05555 51.9444C4.75047 54.4868 4.74915 54.4877 4.74785 54.4886L4.74059 54.4934L4.73232 54.4988L4.71929 54.5073C4.7137 54.5109 4.71611 54.5093 4.71929 54.5073C4.71838 54.5079 4.71989 54.507 4.71929 54.5073C3.78623 55.1131 2.59633 55.1643 1.61377 54.6384C0.620231 54.1067 0 53.0713 0 51.9444V9.16666C0 8.50553 0.214432 7.86224 0.611111 7.33333L3.05555 9.16666C0.611111 7.33333 0.612132 7.33197 0.613172 7.33059L0.615346 7.3277L0.620032 7.32149L0.630757 7.30739L0.657644 7.27253C0.677991 7.24639 0.703206 7.21448 0.733342 7.17719C0.7936 7.10265 0.873621 7.00652 0.973843 6.89198C1.17418 6.66303 1.45596 6.35966 1.82273 6.00757C2.55575 5.30387 3.63316 4.40079 5.08262 3.50882C8.00179 1.71241 12.37 0 18.3333 0C24.2967 0 28.6649 1.71241 31.584 3.50882C33.0335 4.40079 34.1109 5.30387 34.8439 6.00757C35.2107 6.35966 35.4925 6.66303 35.6928 6.89198C35.793 7.00652 35.8731 7.10265 35.9333 7.17719C35.9635 7.21448 35.9887 7.24639 36.009 7.27253L36.0359 7.30739L36.0466 7.32149L36.0513 7.3277L36.0535 7.33059C36.0545 7.33197 36.0555 7.33333 33.6111 9.16666" fill="#45FFE2"/>
<path fill-rule="evenodd" clip-rule="evenodd" d="M36.6667 10.3625V47.3981C39.4413 46.5795 43.4622 45.8333 48.8889 45.8333C54.3155 45.8333 58.3364 46.5795 61.1111 47.3981V10.3625C60.6477 9.92422 59.9289 9.32393 58.9368 8.7134C56.8907 7.45426 53.62 6.11111 48.8889 6.11111C44.1578 6.11111 40.8871 7.45426 38.841 8.7134C37.8489 9.32393 37.13 9.92422 36.6667 10.3625ZM64.1666 9.16666L66.6111 7.33333C67.0078 7.86224 67.2222 8.50553 67.2222 9.16666V51.9444C67.2222 53.0713 66.602 54.1067 65.6084 54.6384C64.6259 55.1643 63.436 55.1131 62.5029 54.5073M62.4817 54.4934L62.4899 54.4988L62.5029 54.5073C62.5065 54.5096 62.5069 54.5098 62.5069 54.5098C62.5063 54.5094 62.5038 54.5079 62.5029 54.5073C62.4942 54.5019 62.4709 54.4878 62.4328 54.4661C62.3489 54.4181 62.1926 54.3328 61.9612 54.2217C61.4986 53.9996 60.733 53.6735 59.6396 53.3371C57.4565 52.6654 53.9405 51.9444 48.8889 51.9444C43.8372 51.9444 40.3212 52.6654 38.1382 53.3371C37.0448 53.6735 36.2791 53.9996 35.8166 54.2217C35.5851 54.3328 35.4289 54.4181 35.3449 54.4661C35.3069 54.4878 35.2836 54.5019 35.2748 54.5073C35.2844 54.5011 35.2939 54.4949 35.3034 54.4886C35.3043 54.488 35.3051 54.4874 35.306 54.4868L33.6111 51.9444C35.306 54.4868 35.3047 54.4877 35.3034 54.4886L35.2961 54.4934L35.2879 54.4988L35.2748 54.5073C35.2692 54.5109 35.2717 54.5093 35.2748 54.5073C35.2739 54.5079 35.2754 54.507 35.2748 54.5073C34.3418 55.1131 33.1519 55.1643 32.1693 54.6384C31.1758 54.1067 30.5555 53.0713 30.5555 51.9444V9.16666C30.5555 8.50553 30.77 7.86224 31.1667 7.33333L33.6111 9.16666C31.1667 7.33333 31.1677 7.33197 31.1687 7.33059L31.1709 7.3277L31.1756 7.32149L31.1863 7.30739L31.2132 7.27253C31.2335 7.24639 31.2587 7.21448 31.2889 7.17719C31.3491 7.10265 31.4292 7.00652 31.5294 6.89198C31.7297 6.66303 32.0115 6.35966 32.3783 6.00757C33.1113 5.30387 34.1887 4.40079 35.6382 3.50882C38.5573 1.71241 42.9255 0 48.8889 0C54.8522 0 59.2204 1.71241 62.1396 3.50882C63.589 4.40079 64.6665 5.30387 65.3995 6.00757C65.7662 6.35966 66.048 6.66303 66.2484 6.89198C66.3486 7.00652 66.4286 7.10265 66.4889 7.17719C66.519 7.21448 66.5442 7.24639 66.5646 7.27253L66.5914 7.30739L66.6022 7.32149L66.6068 7.3277L66.609 7.33059C66.6101 7.33197 66.6111 7.33333 64.1666 9.16666" fill="#45FFE2"/>
</svg>
