<?xml version="1.0" encoding="utf-8" ?>
<svg xmlns="http://www.w3.org/2000/svg" xmlns:xlink="http://www.w3.org/1999/xlink" width="512" height="512" fill="#49B1E9">
	<path d="M425.329 169.293C425.788 169.776 426.409 170.321 426.535 171C426.99 173.466 426.674 176.551 426.675 179.063L426.68 196.04L426.638 257.695C424.905 257.544 423.159 257.456 421.474 256.999C422.066 256.953 422.661 256.925 423.244 256.808C423.809 256.694 424.311 256.802 424.875 256.877L424.877 255.75C425.292 255.126 425.038 254.825 425.127 254.125C425.442 251.65 425.343 249.144 425.342 246.629L425.344 235.438L425.34 198.302L425.33 178.472L425.292 173.184C425.284 172.562 425.422 171.935 425.319 171.328L425.25 171L425.625 170.627C425.453 170.21 425.409 169.737 425.329 169.293Z"/>
	<path d="M396.283 512C394.591 511.404 392.654 511.254 390.875 510.994L382 509.522C369.538 506.985 356.923 501.242 346.364 494.223C322.308 478.23 306.174 453.581 300.543 425.329C296.102 403.042 299.502 378.718 309.519 358.375C312.273 352.782 315.606 347.799 319.018 342.608C321.657 338.592 325.081 334.818 328.426 331.374C341.783 317.619 358.335 307.506 376.905 302.508C404.354 295.12 433.705 298.535 458.411 312.806C481.348 326.056 499.837 348.362 507.311 373.939C508.501 378.011 509.615 382.166 510.287 386.359C510.833 389.759 511.009 393.499 511.922 396.799L512 397.066L512 413.898L512 512L414.89 512L396.283 512ZM384.085 341.344L384.002 384.051L341.273 384.118L341.287 426.49L383.953 426.643L384.051 469.235L415.386 469.326L422.839 469.322C424.014 469.321 425.404 469.481 426.53 469.125L426.599 468.644L426.732 426.679L457.576 426.575L465.403 426.584C466.658 426.586 468.001 426.738 469.241 426.592L469.384 384.127L426.535 384.008L426.572 383.785C426.81 382.151 426.655 380.444 426.625 378.797L426.604 371.376L426.537 341.543L397.814 341.482L390.033 341.516C388.046 341.548 386.051 341.701 384.085 341.344ZM414.89 512L512 512L512 413.898L511.922 414.152C511.097 416.983 510.938 420.207 510.471 423.125C509.792 427.367 508.813 431.612 507.594 435.734C499.686 462.463 481.152 485.074 456.927 498.686C447.809 503.809 437.46 507.845 427.19 509.874L419.144 511.123C417.733 511.339 416.206 511.444 414.89 512Z"/>
	<path d="M421.474 256.999L408.234 256.132C399.231 255.9 390.232 256.75 381.337 258.063C330.239 265.61 285.111 302.465 266.587 350.529C264.105 356.97 261.905 363.574 260.337 370.303L258.665 378.347C258.387 379.743 258.276 381.449 257.381 382.597L256.11 384.187L170.528 298.742L129.737 339.543C129.262 340.031 128.388 340.841 128.136 341.474C127.7 342.569 128.01 345.115 128.009 346.3L128.004 361.604L128.058 426.523L155.916 426.588L217.478 426.588L244.068 426.589C248.26 426.589 253.15 426.102 257.25 426.815C258.333 428.024 258.442 431.184 258.727 432.807L260.138 439.37C262.567 449.804 266.208 459.557 270.507 469.342L260.659 469.463L237.5 469.471L163.191 469.475L140.128 469.474C133.437 469.474 126.719 469.739 120.093 468.614C113.562 467.506 107.161 464.403 101.907 460.417C92.8878 453.575 87.1717 443.229 85.6855 432.077C84.855 425.846 85.3065 419.169 85.3058 412.872L85.3039 378.93L85.3091 264.4L85.3046 139.239L85.3073 101.291C85.3098 94.5947 84.8492 87.534 85.5685 80.8924C86.4564 72.694 89.5982 65.4427 94.5136 58.875C99.3683 52.3884 106.311 47.8265 113.862 45.0916C118.155 43.5367 122.583 42.8788 127.125 42.6496L149.016 42.5826L191.502 42.5794L259.555 42.5833L294.804 42.6052C295.858 42.6213 298.037 42.5245 298.898 43.102L299.201 43.375C304.134 47.6259 308.65 52.6343 313.265 57.2428L340.482 84.4699L425.329 169.293C425.409 169.737 425.453 170.21 425.625 170.627L425.25 171L425.319 171.328C425.422 171.935 425.284 172.562 425.292 173.184L425.33 178.472L425.34 198.302L425.344 235.438L425.342 246.629C425.343 249.144 425.442 251.65 425.127 254.125C425.038 254.825 425.292 255.126 424.877 255.75L424.875 256.877C424.311 256.802 423.809 256.694 423.244 256.808C422.661 256.925 422.066 256.953 421.474 256.999ZM277.272 74.1502L277.294 74.4618L277.236 191.865L394.632 191.969L381.081 178.347L355.189 152.26L281.056 77.4454C280.008 76.4045 278.628 74.6763 277.272 74.1502ZM252.303 235.077C246.389 236.355 241.441 239.189 238.11 244.375C234.976 249.254 233.975 255.351 235.263 261L235.875 262.955L236.016 263.368C237.864 268.661 241.92 272.858 246.925 275.278C251.1 277.296 255.437 277.511 259.959 276.928C266.042 275.276 271.092 272.359 274.33 266.73C277.308 261.552 278.045 255.649 276.394 249.908C274.896 244.699 271.142 240.043 266.393 237.437C261.832 234.934 257.395 234.664 252.303 235.077Z"/>
</svg>
