<svg width="74" height="68" viewBox="0 0 74 68" fill="none" xmlns="http://www.w3.org/2000/svg">
<path fill-rule="evenodd" clip-rule="evenodd" d="M47.57 7.55899L9.47185 45.6594C9.03689 46.0943 8.74022 46.6484 8.61956 47.2515C8.61956 47.2515 8.61957 47.2515 8.61956 47.2515L7.08729 54.9127L14.7456 53.3807C15.3488 53.26 15.9028 52.9635 16.3377 52.5286L54.4419 14.4284C55.3067 13.5128 55.7826 12.2969 55.7685 11.0368C55.7543 9.76646 55.2432 8.55223 54.3448 7.65406C53.4464 6.75589 52.232 6.24519 50.9616 6.23131C49.7014 6.21753 48.4854 6.69383 47.57 7.55899ZM43.24 3.07796C45.3346 1.07359 48.1308 -0.0310175 51.0297 0.000663102C53.9287 0.0323437 56.7 1.19779 58.7503 3.24746C60.8006 5.29712 61.9668 8.06805 61.9993 10.9669C62.0318 13.8658 60.9279 16.6622 58.9241 18.7573L58.8755 18.807L20.744 56.9344C20.744 56.9344 20.7441 56.9343 20.744 56.9344C19.4393 58.2391 17.7773 59.1287 15.9679 59.4906C15.9679 59.4906 15.968 59.4906 15.9679 59.4906L3.7268 61.9394C2.70531 62.1438 1.64927 61.8241 0.912638 61.0875C0.176004 60.3509 -0.143747 59.2949 0.060553 58.2734L2.5094 46.0295C2.87133 44.2201 3.76075 42.5583 5.06557 41.2535C5.06551 41.2536 5.06563 41.2535 5.06557 41.2535L43.191 3.12596L43.24 3.07796Z" fill="#FBF8D5"/>
<path fill-rule="evenodd" clip-rule="evenodd" d="M45.1761 24.3463L35.8293 14.9997L40.2354 10.5938L49.5822 19.9403L45.1761 24.3463Z" fill="#FBF8D5"/>
<path d="M54.5909 67.0114V48.2614H57.7727V67.0114H54.5909ZM46.8068 59.2273V56.0455H65.5568V59.2273H46.8068Z" fill="#FBF8D5"/>
</svg>
