<svg width="50" height="56" viewBox="0 0 50 56" fill="none" xmlns="http://www.w3.org/2000/svg">
<path fill-rule="evenodd" clip-rule="evenodd" d="M24.8889 56C23.1707 56 21.7778 54.6071 21.7778 52.8889L21.7778 3.11111C21.7778 1.39289 23.1707 -6.08852e-08 24.8889 -1.35991e-07C26.6072 -2.11097e-07 28.0001 1.39289 28.0001 3.11111L28.0001 52.8889C28.0001 54.6071 26.6072 56 24.8889 56Z" fill="#45FFE2"/>
<path fill-rule="evenodd" clip-rule="evenodd" d="M0.911223 27.0888C-0.303741 25.8738 -0.303741 23.904 0.911223 22.689L22.689 0.911223C23.904 -0.303744 25.8738 -0.303744 27.0888 0.911223L48.8666 22.689C50.0815 23.904 50.0815 25.8738 48.8666 27.0888C47.6516 28.3037 45.6817 28.3037 44.4668 27.0888L24.8889 7.51088L5.311 27.0888C4.09603 28.3037 2.12619 28.3037 0.911223 27.0888Z" fill="#45FFE2"/>
</svg>
