<svg width="68" height="68" viewBox="0 0 68 68" fill="none" xmlns="http://www.w3.org/2000/svg">
<path d="M34.7496 0.000119701C22.9387 -0.0315082 12.5451 6.20709 6.60481 15.6322C6.34149 16.0513 6.63579 16.6047 7.12372 16.6047H12.5683C12.9401 16.6047 13.2886 16.4387 13.521 16.1461C14.0631 15.474 14.644 14.8257 15.2558 14.2089C17.7806 11.6392 20.7159 9.61499 23.9843 8.20755C27.361 6.75267 30.9546 6.00941 34.6644 6.00941C38.3742 6.00941 41.9678 6.74476 45.3446 8.20755C48.6129 9.61499 51.5482 11.6392 54.073 14.2089C56.5978 16.7787 58.5728 19.7754 59.9591 23.1043C61.3919 26.5517 62.1122 30.2126 62.1122 34.0001C62.1122 37.7875 61.3842 41.4484 59.9591 44.8959C58.5805 48.2247 56.5978 51.2214 54.073 53.7912C51.5482 56.361 48.6129 58.3851 45.3446 59.7926C41.9652 61.2498 38.3329 61.9974 34.6644 61.9907C30.9546 61.9907 27.361 61.2475 23.9843 59.7926C20.7224 58.3866 17.7582 56.3485 15.2558 53.7912C14.644 53.1665 14.0709 52.5182 13.521 51.854C13.2886 51.5614 12.9324 51.3954 12.5683 51.3954H7.12372C6.63579 51.3954 6.33374 51.9489 6.60481 52.3679C12.5374 61.7693 22.8845 68 34.6644 68C52.9578 68 67.8124 52.9689 67.9983 34.348C68.1842 15.4266 53.3063 0.0475615 34.7496 0.000119701ZM24.9384 42.8559V36.8466H0.619588C0.278815 36.8466 0 36.5619 0 36.214V31.7861C0 31.4382 0.278815 31.1536 0.619588 31.1536H24.9384V25.1443C24.9384 24.6145 25.5425 24.314 25.9453 24.6461L36.9352 33.5019C37.0093 33.5611 37.0692 33.6367 37.1103 33.723C37.1515 33.8093 37.1729 33.9041 37.1729 34.0001C37.1729 34.0961 37.1515 34.1908 37.1103 34.2771C37.0692 34.3634 37.0093 34.439 36.9352 34.4982L25.9453 43.354C25.5425 43.6782 24.9384 43.3856 24.9384 42.8559Z" fill="#FCF9D5"/>
</svg>
