<svg width="59" height="59" viewBox="0 0 59 59" fill="none" xmlns="http://www.w3.org/2000/svg">
<path fill-rule="evenodd" clip-rule="evenodd" d="M26.6905 5.61905C21.102 5.61905 15.7424 7.83907 11.7907 11.7907C7.83907 15.7424 5.61905 21.102 5.61905 26.6905C5.61905 32.279 7.83907 37.6386 11.7907 41.5902C15.7424 45.5419 21.102 47.7619 26.6905 47.7619C32.2535 47.7619 37.5898 45.5621 41.5362 41.6441C41.5577 41.6211 41.5797 41.5985 41.6021 41.5761C41.6224 41.5558 41.643 41.5359 41.6637 41.5163C45.5694 37.5719 47.7619 32.2442 47.7619 26.6905C47.7619 21.102 45.5419 15.7424 41.5902 11.7907C37.6386 7.83907 32.279 5.61905 26.6905 5.61905ZM47.4539 43.4615C51.2713 38.7357 53.381 32.8218 53.381 26.6905C53.381 19.6117 50.5689 12.8229 45.5635 7.81746C40.5581 2.81202 33.7692 0 26.6905 0C19.6117 0 12.8229 2.81203 7.81746 7.81746C2.81203 12.8229 0 19.6117 0 26.6905C0 33.7692 2.81202 40.5581 7.81746 45.5635C12.8229 50.5689 19.6117 53.381 26.6905 53.381C32.831 53.381 38.7533 51.265 43.4826 47.4368L54.2021 58.1753C55.2983 59.2735 57.0772 59.2751 58.1753 58.1789C59.2735 57.0827 59.2751 55.3038 58.1789 54.2056L47.4539 43.4615Z" fill="#0A0A1B"/>
</svg>
