<svg width="70" height="63" viewBox="0 0 70 63" fill="none" xmlns="http://www.w3.org/2000/svg">
<path fill-rule="evenodd" clip-rule="evenodd" d="M70 31.1111C70 33.2589 68.2589 35 66.1111 35L3.8889 35C1.74113 35 7.47718e-06 33.2589 7.28942e-06 31.1111C7.10165e-06 28.9633 1.74113 27.2222 3.8889 27.2222L66.1111 27.2222C68.2589 27.2222 70 28.9633 70 31.1111Z" fill="white"/>
<path fill-rule="evenodd" clip-rule="evenodd" d="M33.861 61.0831C32.3423 62.6018 29.88 62.6018 28.3613 61.0831L1.13903 33.8609C-0.379676 32.3422 -0.379676 29.8799 1.13903 28.3612L28.3612 1.13898C29.88 -0.37973 32.3423 -0.37973 33.861 1.13898C35.3797 2.65768 35.3797 5.11999 33.861 6.63869L9.38861 31.1111L33.861 55.5834C35.3797 57.1021 35.3797 59.5644 33.861 61.0831Z" fill="white"/>
</svg>
