<svg width="58" height="64" viewBox="0 0 58 64" fill="none" xmlns="http://www.w3.org/2000/svg">
<path fill-rule="evenodd" clip-rule="evenodd" d="M44.501 7.80283L8.86076 47.1322C8.45387 47.5812 8.17633 48.1532 8.06346 48.7757C8.06346 48.7758 8.06347 48.7757 8.06346 48.7757L6.63004 56.6841L13.7943 55.1026C14.3585 54.9781 14.8768 54.672 15.2837 54.223L50.9296 14.8939C51.7386 13.9487 52.1838 12.6936 52.1706 11.3928C52.1572 10.0815 51.6792 8.8281 50.8387 7.90096C49.9982 6.97382 48.8622 6.44665 47.6738 6.43232C46.4948 6.4181 45.3573 6.90976 44.501 7.80283ZM40.4504 3.17724C42.4098 1.10822 45.0256 -0.032018 47.7375 0.000684492C50.4494 0.033387 53.0419 1.23643 54.9599 3.35221C56.878 5.46799 57.969 8.32831 57.9993 11.3207C58.0297 14.3131 56.9971 17.1997 55.1225 19.3624L55.0771 19.4137L19.4057 58.771C19.4057 58.771 19.4058 58.7709 19.4057 58.771C18.1851 60.1178 16.6304 61.0361 14.9377 61.4097C14.9377 61.4097 14.9378 61.4097 14.9377 61.4097L3.48636 63.9375C2.53077 64.1484 1.54287 63.8184 0.853758 63.0581C0.164649 62.2977 -0.134473 61.2077 0.0566463 60.1532L2.34751 47.5143C2.68608 45.6466 3.51812 43.9311 4.73876 42.5843C4.7387 42.5844 4.73881 42.5842 4.73876 42.5843L40.4044 3.2268L40.4504 3.17724Z" fill="#45FFE2"/>
</svg>
