<svg viewBox="0 0 1208 1208" fill="none" xmlns="http://www.w3.org/2000/svg">
<path fill-rule="evenodd" clip-rule="evenodd" d="M926.848 147.278L184.548 889.621C176.074 898.095 170.293 908.891 167.942 920.642C167.942 920.642 167.943 920.642 167.942 920.642L138.088 1069.91L287.301 1040.06C299.053 1037.71 309.848 1031.93 318.323 1023.46L1060.74 281.121C1077.59 263.282 1086.86 239.591 1086.59 215.039C1086.31 190.288 1076.35 166.63 1058.85 149.131C1041.34 131.631 1017.68 121.68 992.93 121.41C968.375 121.142 944.684 130.422 926.848 147.278ZM842.483 59.9705C883.294 20.9177 937.774 -0.60434 994.257 0.0129198C1050.74 0.63018 1104.74 23.3377 1144.68 63.273C1184.63 103.208 1207.35 157.197 1207.99 213.678C1208.62 270.16 1187.11 324.644 1148.07 365.464L1147.12 366.433L404.174 1109.3C404.173 1109.3 404.175 1109.3 404.174 1109.3C378.752 1134.72 346.371 1152.06 311.117 1159.11C311.117 1159.11 311.118 1159.11 311.117 1159.11L72.6125 1206.82C52.7099 1210.8 32.1342 1204.57 17.7817 1190.22C3.42924 1175.87 -2.80076 1155.29 1.17981 1135.39L48.8929 896.833C55.9446 861.579 73.2741 829.2 98.6969 803.779C98.6981 803.777 98.6957 803.78 98.6969 803.779L841.527 60.9058L842.483 59.9705Z" fill="#FBF8D5"/>
<path fill-rule="evenodd" clip-rule="evenodd" d="M880.201 474.342L698.09 292.235L783.938 206.39L966.049 388.496L880.201 474.342Z" fill="#FBF8D5"/>
</svg>
