<svg width="665" height="250" viewBox="0 0 665 250" fill="none" xmlns="http://www.w3.org/2000/svg">
<path d="M3.18848 159.864C3.18848 110.768 43.128 71 92.4363 71C141.745 71 181.684 110.768 181.684 159.864C181.684 208.961 141.745 248.729 92.4363 248.729C43.128 248.729 3.18848 208.961 3.18848 159.864Z" fill="#768AE0"/>
<path d="M57.4892 110.558H14.7227V112.216H57.4892V110.558Z" fill="#062551"/>
<path d="M91.6243 110.558H14.7227V112.216H91.6243V110.558Z" fill="#062551"/>
<path d="M171.673 110.558H14.7227V112.287H171.673V110.558Z" fill="#062551"/>
<path d="M175.772 120.822H8.45654V122.979H175.772V120.822Z" fill="#062551"/>
<path d="M182.135 131.88H5.25195V134.393H182.135V131.88Z" fill="#062551"/>
<path d="M182.135 131.88H5.25195V134.393H182.135V131.88Z" fill="#062551"/>
<path d="M187.679 142.12H2.70068V145.094H187.679V142.12Z" fill="#062551"/>
<path d="M186.948 153.191H0.375488V156.465H186.948V153.191Z" fill="#062551"/>
<path d="M187.193 153.191H0.375488V156.465H187.193V153.191Z" fill="#062551"/>
<path d="M185.912 163.695H0.320312V167.418H185.912V163.695Z" fill="#062551"/>
<path d="M183.444 174.019H2.26855V178.191H183.444V174.019Z" fill="#062551"/>
<path d="M180.206 184.822H5.16357V189.144H180.206V184.822Z" fill="#062551"/>
<path d="M177.413 195.565H7.03076V200.037H177.413V195.565Z" fill="#062551"/>
<path d="M171.603 205.611H13.6284V210.658H171.603V205.611Z" fill="#062551"/>
<path d="M163.492 216.435H21.5303V221.596H163.492V216.435Z" fill="#062551"/>
<path d="M152.492 226.926H32.0273V232.548H152.492V226.926Z" fill="#062551"/>
<path d="M137.06 237.507H45.4434V243.589H137.06V237.507Z" fill="#062551"/>
<path d="M118.354 247.042H70.9634V249.919H118.354V247.042Z" fill="#062551"/>
<path d="M479.868 122.864C479.868 73.7679 519.808 34 569.116 34C618.424 34 658.364 73.7679 658.364 122.864C658.364 171.961 618.424 211.729 569.116 211.729C519.808 211.729 479.868 171.961 479.868 122.864Z" fill="#FCACAD"/>
<path d="M534.169 73.5576H491.402V75.2163H534.169V73.5576Z" fill="#062551"/>
<path d="M568.304 73.5576H491.402V75.2163H568.304V73.5576Z" fill="#062551"/>
<path d="M648.353 73.5576H491.402V75.2866H648.353V73.5576Z" fill="#062551"/>
<path d="M652.452 83.8223H485.136V85.9793H652.452V83.8223Z" fill="#062551"/>
<path d="M658.814 94.8799H481.932V97.3933H658.814V94.8799Z" fill="#062551"/>
<path d="M658.814 94.8799H481.932V97.3933H658.814V94.8799Z" fill="#062551"/>
<path d="M664.358 105.12H479.38V108.094H664.358V105.12Z" fill="#062551"/>
<path d="M663.628 116.191H477.055V119.465H663.628V116.191Z" fill="#062551"/>
<path d="M663.873 116.191H477.055V119.465H663.873V116.191Z" fill="#062551"/>
<path d="M662.591 126.695H477V130.418H662.591V126.695Z" fill="#062551"/>
<path d="M660.124 137.019H478.948V141.191H660.124V137.019Z" fill="#062551"/>
<path d="M656.886 147.822H481.843V152.144H656.886V147.822Z" fill="#062551"/>
<path d="M654.092 158.565H483.71V163.037H654.092V158.565Z" fill="#062551"/>
<path d="M648.283 168.611H490.308V173.658H648.283V168.611Z" fill="#062551"/>
<path d="M640.171 179.435H498.21V184.596H640.171V179.435Z" fill="#062551"/>
<path d="M629.171 189.926H508.707V195.548H629.171V189.926Z" fill="#062551"/>
<path d="M613.74 200.507H522.123V206.589H613.74V200.507Z" fill="#062551"/>
<path d="M595.034 210.042H547.643V212.919H595.034V210.042Z" fill="#062551"/>
<path d="M153.545 16.8869C153.545 7.55709 161.135 0 170.505 0C179.875 0 187.464 7.55709 187.464 16.8869C187.464 26.2166 179.875 33.7737 170.505 33.7737C161.135 33.7737 153.545 26.2166 153.545 16.8869Z" fill="#52BCF5"/>
<path d="M163.864 7.51758H155.737V7.83277H163.864V7.51758Z" fill="#062551"/>
<path d="M170.35 7.51758H155.737V7.83277H170.35V7.51758Z" fill="#062551"/>
<path d="M185.562 7.51758H155.737V7.84614H185.562V7.51758Z" fill="#062551"/>
<path d="M186.341 9.46777H154.546V9.87767H186.341V9.46777Z" fill="#062551"/>
<path d="M187.55 11.5693H153.937V12.047H187.55V11.5693Z" fill="#062551"/>
<path d="M187.55 11.5693H153.937V12.047H187.55V11.5693Z" fill="#062551"/>
<path d="M188.603 13.5146H153.452V14.0797H188.603V13.5146Z" fill="#062551"/>
<path d="M188.465 15.6182H153.01V16.2402H188.465V15.6182Z" fill="#062551"/>
<path d="M188.511 15.6182H153.01V16.2402H188.511V15.6182Z" fill="#062551"/>
<path d="M188.268 17.6152H153V18.3227H188.268V17.6152Z" fill="#062551"/>
<path d="M187.799 19.5762H153.37V20.369H187.799V19.5762Z" fill="#062551"/>
<path d="M187.184 21.6289H153.92V22.4502H187.184V21.6289Z" fill="#062551"/>
<path d="M186.653 23.6709H154.275V24.5207H186.653V23.6709Z" fill="#062551"/>
<path d="M185.549 25.5801H155.529V26.5392H185.549V25.5801Z" fill="#062551"/>
<path d="M184.007 27.6377H157.03V28.6186H184.007V27.6377Z" fill="#062551"/>
<path d="M181.917 29.6309H159.025V30.6992H181.917V29.6309Z" fill="#062551"/>
<path d="M178.985 31.6416H161.575V32.7973H178.985V31.6416Z" fill="#062551"/>
<path d="M175.43 33.4531H166.424V33.9999H175.43V33.4531Z" fill="#062551"/>
</svg>
