<svg width="3214" height="1436" viewBox="0 0 3214 1436" fill="none" xmlns="http://www.w3.org/2000/svg">
<path d="M15.7207 577.051C15.7207 307.962 234.623 90 504.873 90C775.124 90 994.027 307.962 994.027 577.051C994.027 846.14 775.124 1064.1 504.873 1064.1C234.623 1064.1 15.7207 846.14 15.7207 577.051Z" fill="#52BCF5"/>
<path d="M313.333 306.809H78.9365V315.899H313.333V306.809Z" fill="#062551"/>
<path d="M500.422 306.809H78.9365V315.899H500.422V306.809Z" fill="#062551"/>
<path d="M939.158 306.809H78.9365V316.285H939.158V306.809Z" fill="#062551"/>
<path d="M961.622 363.066H44.5938V374.889H961.622V363.066Z" fill="#062551"/>
<path d="M996.494 423.672H27.0293V437.448H996.494V423.672Z" fill="#062551"/>
<path d="M996.494 423.672H27.0293V437.448H996.494V423.672Z" fill="#062551"/>
<path d="M1026.88 479.799H13.0479V496.096H1026.88V479.799Z" fill="#062551"/>
<path d="M1022.88 540.477H0.300781V558.416H1022.88V540.477Z" fill="#062551"/>
<path d="M1024.22 540.477H0.300781V558.416H1024.22V540.477Z" fill="#062551"/>
<path d="M1017.2 598.051H0V618.455H1017.2V598.051Z" fill="#062551"/>
<path d="M1003.67 654.627H10.6797V677.495H1003.67V654.627Z" fill="#062551"/>
<path d="M985.927 713.842H26.5459V737.53H985.927V713.842Z" fill="#062551"/>
<path d="M970.613 772.727H36.7783V797.237H970.613V772.727Z" fill="#062551"/>
<path d="M938.774 827.783H72.9385V855.445H938.774V827.783Z" fill="#062551"/>
<path d="M894.317 887.105H116.25V915.397H894.317V887.105Z" fill="#062551"/>
<path d="M834.025 944.602H173.78V975.414H834.025V944.602Z" fill="#062551"/>
<path d="M749.447 1002.6H247.311V1035.93H749.447V1002.6Z" fill="#062551"/>
<path d="M646.924 1054.86H387.183V1070.63H646.924V1054.86Z" fill="#062551"/>
<path d="M2388.91 391.044C2388.91 353.451 2419.49 323 2457.24 323C2495 323 2525.58 353.451 2525.58 391.044C2525.58 428.637 2495 459.088 2457.24 459.088C2419.49 459.088 2388.91 428.637 2388.91 391.044Z" fill="#52BCF5"/>
<path d="M2430.48 353.289H2397.74V354.559H2430.48V353.289Z" fill="#062551"/>
<path d="M2456.62 353.289H2397.74V354.559H2456.62V353.289Z" fill="#062551"/>
<path d="M2517.92 353.289H2397.74V354.613H2517.92V353.289Z" fill="#062551"/>
<path d="M2521.06 361.148H2392.94V362.8H2521.06V361.148Z" fill="#062551"/>
<path d="M2525.93 369.615H2390.49V371.54H2525.93V369.615Z" fill="#062551"/>
<path d="M2525.93 369.615H2390.49V371.54H2525.93V369.615Z" fill="#062551"/>
<path d="M2530.17 377.457H2388.53V379.734H2530.17V377.457Z" fill="#062551"/>
<path d="M2529.61 385.934H2386.75V388.44H2529.61V385.934Z" fill="#062551"/>
<path d="M2529.8 385.934H2386.75V388.44H2529.8V385.934Z" fill="#062551"/>
<path d="M2528.82 393.979H2386.71V396.829H2528.82V393.979Z" fill="#062551"/>
<path d="M2526.93 401.881H2388.2V405.076H2526.93V401.881Z" fill="#062551"/>
<path d="M2524.45 410.154H2390.42V413.464H2524.45V410.154Z" fill="#062551"/>
<path d="M2522.31 418.381H2391.85V421.805H2522.31V418.381Z" fill="#062551"/>
<path d="M2517.86 426.072H2396.9V429.937H2517.86V426.072Z" fill="#062551"/>
<path d="M2511.65 434.361H2402.95V438.314H2511.65V434.361Z" fill="#062551"/>
<path d="M2503.23 442.393H2410.99V446.697H2503.23V442.393Z" fill="#062551"/>
<path d="M2491.41 450.496H2421.26V455.153H2491.41V450.496Z" fill="#062551"/>
<path d="M2477.09 457.797H2440.8V460H2477.09V457.797Z" fill="#062551"/>
<path d="M1179.73 216.561C1179.73 180.339 1209.2 151 1245.58 151C1281.96 151 1311.42 180.339 1311.42 216.561C1311.42 252.782 1281.96 282.121 1245.58 282.121C1209.2 282.121 1179.73 252.782 1179.73 216.561Z" fill="#768AE0"/>
<path d="M1219.79 180.184H1188.24V181.407H1219.79V180.184Z" fill="#062551"/>
<path d="M1244.98 180.184H1188.24V181.407H1244.98V180.184Z" fill="#062551"/>
<path d="M1304.04 180.184H1188.24V181.459H1304.04V180.184Z" fill="#062551"/>
<path d="M1307.06 187.756H1183.62V189.347H1307.06V187.756Z" fill="#062551"/>
<path d="M1311.75 195.914H1181.26V197.768H1311.75V195.914Z" fill="#062551"/>
<path d="M1311.75 195.914H1181.26V197.768H1311.75V195.914Z" fill="#062551"/>
<path d="M1315.84 203.469H1179.38V205.662H1315.84V203.469Z" fill="#062551"/>
<path d="M1315.3 211.637H1177.66V214.052H1315.3V211.637Z" fill="#062551"/>
<path d="M1315.49 211.637H1177.66V214.052H1315.49V211.637Z" fill="#062551"/>
<path d="M1314.54 219.389H1177.62V222.135H1314.54V219.389Z" fill="#062551"/>
<path d="M1312.72 227.002H1179.06V230.08H1312.72V227.002Z" fill="#062551"/>
<path d="M1310.33 234.973H1181.19V238.161H1310.33V234.973Z" fill="#062551"/>
<path d="M1308.27 242.9H1182.57V246.2H1308.27V242.9Z" fill="#062551"/>
<path d="M1303.98 250.312H1187.44V254.036H1303.98V250.312Z" fill="#062551"/>
<path d="M1298 258.295H1193.27V262.103H1298V258.295Z" fill="#062551"/>
<path d="M1289.88 266.035H1201.01V270.183H1289.88V266.035Z" fill="#062551"/>
<path d="M1278.5 273.844H1210.91V278.331H1278.5V273.844Z" fill="#062551"/>
<path d="M1264.7 280.877H1229.74V283H1264.7V280.877Z" fill="#062551"/>
<path d="M1246.76 884.574C1246.76 849.45 1275.34 821 1310.61 821C1345.89 821 1374.46 849.45 1374.46 884.574C1374.46 919.698 1345.89 948.148 1310.61 948.148C1275.34 948.148 1246.76 919.698 1246.76 884.574Z" fill="#FCACAD"/>
<path d="M1285.61 849.299H1255.01V850.485H1285.61V849.299Z" fill="#062551"/>
<path d="M1310.03 849.299H1255.01V850.485H1310.03V849.299Z" fill="#062551"/>
<path d="M1367.3 849.299H1255.01V850.536H1367.3V849.299Z" fill="#062551"/>
<path d="M1370.23 856.643H1250.53V858.186H1370.23V856.643Z" fill="#062551"/>
<path d="M1374.78 864.553H1248.24V866.351H1374.78V864.553Z" fill="#062551"/>
<path d="M1374.78 864.553H1248.24V866.351H1374.78V864.553Z" fill="#062551"/>
<path d="M1378.75 871.879H1246.42V874.006H1378.75V871.879Z" fill="#062551"/>
<path d="M1378.23 879.799H1244.75V882.14H1378.23V879.799Z" fill="#062551"/>
<path d="M1378.4 879.799H1244.75V882.14H1378.4V879.799Z" fill="#062551"/>
<path d="M1377.49 887.316H1244.71V889.98H1377.49V887.316Z" fill="#062551"/>
<path d="M1375.72 894.699H1246.11V897.684H1375.72V894.699Z" fill="#062551"/>
<path d="M1373.4 902.43H1248.18V905.522H1373.4V902.43Z" fill="#062551"/>
<path d="M1371.4 910.115H1249.51V913.315H1371.4V910.115Z" fill="#062551"/>
<path d="M1367.25 917.301H1254.23V920.911H1367.25V917.301Z" fill="#062551"/>
<path d="M1361.45 925.045H1259.89V928.738H1361.45V925.045Z" fill="#062551"/>
<path d="M1353.58 932.549H1267.4V936.571H1353.58V932.549Z" fill="#062551"/>
<path d="M1342.54 940.121H1276.99V944.472H1342.54V940.121Z" fill="#062551"/>
<path d="M1329.15 946.941H1295.25V949H1329.15V946.941Z" fill="#062551"/>
<path d="M2445.93 1061.52C2445.93 857.367 2612.01 692 2817.04 692C3022.08 692 3188.16 857.367 3188.16 1061.52C3188.16 1265.68 3022.08 1431.05 2817.04 1431.05C2612.01 1431.05 2445.93 1265.68 2445.93 1061.52Z" fill="#768AE0"/>
<path d="M2671.72 856.492H2493.89V863.389H2671.72V856.492Z" fill="#062551"/>
<path d="M2813.67 856.492H2493.89V863.389H2813.67V856.492Z" fill="#062551"/>
<path d="M3146.54 856.492H2493.89V863.682H3146.54V856.492Z" fill="#062551"/>
<path d="M3163.58 899.174H2467.83V908.143H3163.58V899.174Z" fill="#062551"/>
<path d="M3190.04 945.156H2454.51V955.608H3190.04V945.156Z" fill="#062551"/>
<path d="M3190.04 945.156H2454.51V955.608H3190.04V945.156Z" fill="#062551"/>
<path d="M3213.09 987.738H2443.9V1000.1H3213.09V987.738Z" fill="#062551"/>
<path d="M3210.05 1033.78H2434.23V1047.39H3210.05V1033.78Z" fill="#062551"/>
<path d="M3211.07 1033.78H2434.23V1047.39H3211.07V1033.78Z" fill="#062551"/>
<path d="M3205.74 1077.46H2434V1092.94H3205.74V1077.46Z" fill="#062551"/>
<path d="M3195.48 1120.38H2442.1V1137.73H3195.48V1120.38Z" fill="#062551"/>
<path d="M3182.02 1165.31H2454.14V1183.28H3182.02V1165.31Z" fill="#062551"/>
<path d="M3170.4 1209.98H2461.9V1228.58H3170.4V1209.98Z" fill="#062551"/>
<path d="M3146.24 1251.75H2489.34V1272.74H3146.24V1251.75Z" fill="#062551"/>
<path d="M3112.51 1296.76H2522.2V1318.22H3112.51V1296.76Z" fill="#062551"/>
<path d="M3066.77 1340.38H2565.85V1363.76H3066.77V1340.38Z" fill="#062551"/>
<path d="M3002.6 1384.38H2621.63V1409.67H3002.6V1384.38Z" fill="#062551"/>
<path d="M2924.82 1424.04H2727.75V1436H2924.82V1424.04Z" fill="#062551"/>
<path d="M2663.97 217.045C2663.97 97.1306 2761.52 0 2881.95 0C3002.39 0 3099.94 97.1306 3099.94 217.045C3099.94 336.96 3002.39 434.091 2881.95 434.091C2761.52 434.091 2663.97 336.96 2663.97 217.045Z" fill="#FCACAD"/>
<path d="M2796.6 96.6172H2692.14V100.668H2796.6V96.6172Z" fill="#062551"/>
<path d="M2879.97 96.6172H2692.14V100.668H2879.97V96.6172Z" fill="#062551"/>
<path d="M3075.49 96.6172H2692.14V100.84H3075.49V96.6172Z" fill="#062551"/>
<path d="M3085.5 121.688H2676.84V126.956H3085.5V121.688Z" fill="#062551"/>
<path d="M3101.04 148.695H2669.01V154.834H3101.04V148.695Z" fill="#062551"/>
<path d="M3101.04 148.695H2669.01V154.834H3101.04V148.695Z" fill="#062551"/>
<path d="M3114.58 173.707H2662.78V180.969H3114.58V173.707Z" fill="#062551"/>
<path d="M3112.79 200.748H2657.1V208.742H3112.79V200.748Z" fill="#062551"/>
<path d="M3113.39 200.748H2657.1V208.742H3113.39V200.748Z" fill="#062551"/>
<path d="M3110.26 226.404H2656.97V235.497H3110.26V226.404Z" fill="#062551"/>
<path d="M3104.24 251.617H2661.73V261.808H3104.24V251.617Z" fill="#062551"/>
<path d="M3096.33 278.006H2668.8V288.562H3096.33V278.006Z" fill="#062551"/>
<path d="M3089.5 304.246H2673.36V315.169H3089.5V304.246Z" fill="#062551"/>
<path d="M3075.31 328.779H2689.47V341.106H3075.31V328.779Z" fill="#062551"/>
<path d="M3055.5 355.217H2708.77V367.824H3055.5V355.217Z" fill="#062551"/>
<path d="M3028.63 380.838H2734.41V394.569H3028.63V380.838Z" fill="#062551"/>
<path d="M2990.94 406.682H2767.18V421.536H2990.94V406.682Z" fill="#062551"/>
<path d="M2945.26 429.973H2829.51V437.001H2945.26V429.973Z" fill="#062551"/>
</svg>
